<?xml version="1.0" encoding="UTF-8" standalone="no"?>
<!-- Created with Inkscape (http://www.inkscape.org/) -->

<svg
   xmlns:dc="http://purl.org/dc/elements/1.1/"
   xmlns:cc="http://creativecommons.org/ns#"
   xmlns:rdf="http://www.w3.org/1999/02/22-rdf-syntax-ns#"
   xmlns:svg="http://www.w3.org/2000/svg"
   xmlns="http://www.w3.org/2000/svg"
   xmlns:sodipodi="http://sodipodi.sourceforge.net/DTD/sodipodi-0.dtd"
   xmlns:inkscape="http://www.inkscape.org/namespaces/inkscape"
   width="210mm"
   height="297mm"
   viewBox="0 0 210 297"
   version="1.1"
   id="svg8"
   inkscape:version="0.92.0 r15299"
   sodipodi:docname="bitc.svg">
  <defs
     id="defs2" />
  <sodipodi:namedview
     id="base"
     pagecolor="#ffffff"
     bordercolor="#666666"
     borderopacity="1.0"
     inkscape:pageopacity="0.0"
     inkscape:pageshadow="2"
     inkscape:zoom="1.7374472"
     inkscape:cx="454.46336"
     inkscape:cy="582.26105"
     inkscape:document-units="mm"
     inkscape:current-layer="text4487"
     showgrid="false"
     showguides="true"
     inkscape:guide-bbox="true"
     inkscape:window-width="1366"
     inkscape:window-height="705"
     inkscape:window-x="-8"
     inkscape:window-y="-8"
     inkscape:window-maximized="1">
    <sodipodi:guide
       position="77.420596,186.1579"
       orientation="1,0"
       id="guide4492"
       inkscape:locked="false" />
    <sodipodi:guide
       position="84.152079,187.09435"
       orientation="1,0"
       id="guide4494"
       inkscape:locked="false" />
    <sodipodi:guide
       position="90.424451,187.92887"
       orientation="1,0"
       id="guide4496"
       inkscape:locked="false" />
    <sodipodi:guide
       position="97.119843,155.19815"
       orientation="1,0"
       id="guide4498"
       inkscape:locked="false" />
    <sodipodi:guide
       position="67.765846,137.13067"
       orientation="0,1"
       id="guide4500"
       inkscape:locked="false" />
    <sodipodi:guide
       position="71.725199,130.62058"
       orientation="0,1"
       id="guide4502"
       inkscape:locked="false" />
    <sodipodi:guide
       position="73.362239,171.24202"
       orientation="0,1"
       id="guide4504"
       inkscape:locked="false" />
  </sodipodi:namedview>
  <metadata
     id="metadata5">
    <rdf:RDF>
      <cc:Work
         rdf:about="">
        <dc:format>image/svg+xml</dc:format>
        <dc:type
           rdf:resource="http://purl.org/dc/dcmitype/StillImage" />
        <dc:title></dc:title>
      </cc:Work>
    </rdf:RDF>
  </metadata>
  <g
     inkscape:label="Layer 1"
     inkscape:groupmode="layer"
     id="layer1">
    <g
       aria-label="B"
       transform="scale(1.0025911,0.9974156)"
       style="font-style:normal;font-weight:normal;font-size:34.77265549px;line-height:21.73291016px;font-family:sans-serif;letter-spacing:0px;word-spacing:0px;fill:none;fill-opacity:1;stroke:#000000;stroke-width:0.66500002;stroke-miterlimit:4;stroke-dasharray:none;stroke-opacity:1"
       id="text4487">
      <path
         d="m 112.04831,152.35765 c 0,2.28196 -0.46484,4.32093 -1.39453,6.11691 -0.90855,1.79599 -2.16574,3.2856 -3.77156,4.46883 -3.70269,2.592 -8.619545,3.86187 -9.986954,3.86665 v 7.95807 h -6.735433 v -7.95807 H 84.02872 v 7.95807 h -6.80821 v -7.95807 h -8.516902 -3.366822 v -6.52647 l 6.333589,0.0338 v -11.20439 -5.89902 -5.89901 -11.2044 l -6.333589,-0.0631 v -6.42956 h 3.081578 8.802146 l 2e-6,-8.4886 h 6.714084 l -0.02313,8.4886 h 6.279294 v -8.4886 h 6.702637 l -0.02455,8.4886 c 4.375333,0.45425 8.102633,1.23927 10.710613,5.73659 0.88743,1.5213 1.33114,3.26446 1.33114,5.22948 0,2.28195 -0.60218,4.29979 -1.80655,6.05352 -1.20436,1.7326 -2.90526,3.08487 -5.1027,4.05681 v 0.25355 c 3.08487,0.61275 5.52529,1.8805 7.32127,3.80326 1.81711,1.92276 2.72567,4.45827 2.72567,7.60652 z M 90.464816,126.21158 c -1.310011,-0.0423 -3.158818,-0.0634 -5.54642,-0.0634 h -1.140978 v 11.57517 h 1.90163 c 1.922759,0 3.560274,-0.0317 4.912544,-0.0951 8.428462,-0.3259 8.053757,-11.24858 -0.126776,-11.41667 z m 0.148768,19.15825 c -1.669209,-0.0211 -2.356771,-0.0317 -4.173884,-0.0317 h -2.662282 v 13.88056 h 0.887427 c 3.422934,0 4.818326,-0.0106 6.297371,-0.0317 10.552044,-0.51458 9.345454,-13.6651 -0.348632,-13.81716 z"
         style="font-style:normal;font-variant:normal;font-weight:bold;font-stretch:normal;font-size:64.90896606px;font-family:'MS Sans Serif';-inkscape-font-specification:'MS Sans Serif Bold';fill:none;fill-opacity:1;stroke:#000000;stroke-width:0.66500002;stroke-miterlimit:4;stroke-dasharray:none;stroke-opacity:1"
         id="path4489"
         inkscape:connector-curvature="0"
         sodipodi:nodetypes="cccccccccccccccccccccccccccccccsccccsccccsscccccsscc" />
    </g>
  </g>
</svg>
